<?xml version="1.0" encoding="UTF-8" standalone="no"?>
<!DOCTYPE svg PUBLIC "-//W3C//DTD SVG 1.1//EN" "http://www.w3.org/Graphics/SVG/1.1/DTD/svg11.dtd">
<svg width="456" height="456" xmlns="http://www.w3.org/2000/svg" xmlns:svg="http://www.w3.org/2000/svg" clip-rule="evenodd" fill-rule="evenodd" stroke-linejoin="round" version="1.1" xml:space="preserve">
 <g class="layer">
  <title>Layer 1</title>
  <path d="m252.03,224.88c16.68,0 30.2,13.52 30.2,30.2c0,7.32 -2.59,14.08 -6.87,19.27l-0.45,0.45l50.03,132.51l-24,9.01l-38.54,-102.09l0,100.17l-25.8,0l0,-98.14l-38.09,100.73l-24,-9.13l51.83,-137.02l-0.45,-0.79c-2.59,-4.39 -4.06,-9.58 -4.06,-14.99c0,-16.68 13.52,-30.2 30.2,-30.2l0,0.02zm-115.61,-30.87c0,0 5.18,25.69 26.93,44.96l-19.27,9.69c0,0 -34.7,-10.25 -25.69,-42.37l18.03,-12.28zm57.8,-46.2c0,0 10.93,48.11 39.21,66.82l-37.3,20.51c0,0 -48.11,-7.1 -42.37,-64.23l40.45,-23.1l0.01,0zm136.79,-70.42c-3.38,0.11 -6.65,1.01 -9.35,2.82c-10.82,7.66 -9.58,28.06 2.82,45.75c12.28,17.69 31.1,25.92 41.92,18.37c10.82,-7.55 9.58,-28.06 -2.7,-45.75c-9.35,-13.3 -22.2,-21.18 -32.68,-21.18l-0.01,-0.01zm-6.08,-20.96c27.72,0.11 48.56,29.63 48.56,29.63c34.7,58.48 0.68,77.18 0.68,77.18l-97.02,50.03c-44.4,1.35 -63.66,-51.38 -63.66,-51.38c-14.08,-37.3 7.77,-52.62 7.77,-52.62l93.07,-51.49c3.61,-0.9 7.1,-1.35 10.59,-1.35l0.01,0z" fill="#FF973A" id="path1"/>
  <path d="m-1.45,20.64l2,0l0,8l0,2l-2,0l-6,0l0,-2l6,0l0,-8zm1,-1.03c-6.07,0 -11,4.95 -11,11.03c0,6.08 4.93,11.03 11,11.03c6.07,0 11,-4.95 11,-11.03c0,-6.08 -4.93,-11.03 -11,-11.03zm8.67,-0.09l-0.79,0.79l0.14,0.11c0.08,0.06 0.16,0.13 0.24,0.19l0.06,0.05l0.75,-0.74l-0.4,-0.4zm-10.44,-5.88l0,1.75l3.54,0l0,-1.75l-3.54,0zm-2,-2l7.54,0l0,5.75l-2.77,0l0,0.29l0.18,0.01c1.69,0.16 3.29,0.63 4.73,1.37l0.25,0.13l2.51,-2.5l3.23,3.23l-2.15,2.14l0.08,0.08c1.97,2.28 3.17,5.25 3.17,8.5c0,7.17 -5.83,13 -13,13c-7.17,0 -13,-5.83 -13,-13c0,-6.72 5.13,-12.27 11.67,-12.93l0.33,-0.03l0,-0.29l-2.77,0l0,-5.75z" fill="#0A7F3E" id="svg_1" transform="rotate(16 106.485 325.068) translate(81.4977 381.006) scale(0.495734 0.495734) translate(-81.4977 -381.006) matrix(5.50017 0 0 5.50017 156.498 140)"/>
  <text fill="#000000" font-family="Serif" font-size="33.51" id="svg_2" stroke-width="0" text-anchor="middle" transform="rotate(-15.6422 166.119 174.5)" x="94" xml:space="preserve" y="87">Tiempo</text>
  <text fill="#000000" font-family="Serif" font-size="33.51" id="svg_3" stroke-width="0" text-anchor="middle" transform="matrix(1 0 0 1 0 0) rotate(-14.809 101.621 140.5)" x="101.5" xml:space="preserve" y="152">Ubicación</text>
  <text fill="#0f660f" font-family="Serif" font-size="51.52" font-weight="bold" id="svg_4" stroke-width="0" text-anchor="middle" transform="rotate(-8.09766 321.287 145.242)" x="159.14" xml:space="preserve" y="84.87">&amp;</text>
 </g>
</svg>