<?xml version="1.0" encoding="utf-8"?>
<svg width="456" height="456" xmlns="http://www.w3.org/2000/svg" xmlns:svg="http://www.w3.org/2000/svg">
	<g class="layer">
		<title>Layer 1</title>
		<g id="svg_1" transform="translate(-111 90) rotate(11.7425 191.999 268.382) matrix(0.612858 0 0 0.612858 52.268 128.649)">
			<path d="m12,9l2,0l0,8l0,2l-2,0l-6,0l0,-2l6,0l0,-8zm1,-1.03c-6.07,0 -11,4.95 -11,11.03c0,6.08 4.93,11.03 11,11.03c6.07,0 11,-4.95 11,-11.03c0,-6.08 -4.93,-11.03 -11,-11.03zm8.67,-0.09l-0.79,0.79l0.14,0.11c0.08,0.06 0.16,0.13 0.24,0.19l0.06,0.05l0.75,-0.74l-0.4,-0.4zm-10.44,-5.88l0,1.75l3.54,0l0,-1.75l-3.54,0zm-2,-2l7.54,0l0,5.75l-2.77,0l0,0.29l0.18,0.01c1.69,0.16 3.29,0.63 4.73,1.37l0.25,0.13l2.51,-2.5l3.23,3.23l-2.15,2.14l0.08,0.08c1.97,2.28 3.17,5.25 3.17,8.5c0,7.17 -5.83,13 -13,13c-7.17,0 -13,-5.83 -13,-13c0,-6.72 5.13,-12.27 11.67,-12.93l0.33,-0.03l0,-0.29l-2.77,0l0,-5.75z" fill="#0A7F3E" id="path1" transform="rotate(16,228,228) translate(156.497779568622,140) scale(5.50017080241371,5.50017080241371)  "/>
		</g>
	</g>
</svg>