<?xml version="1.0" encoding="utf-8"?>
<svg xmlns="http://www.w3.org/2000/svg" height="456" width="456" viewBox="0 0 456 456">
	<g>
		<path id="path1" transform="rotate(0,228,228) translate(135.916625946746,106) scale(7.62500272691347,7.62500272691347)  " fill="#FF973A" d="M11.993124,14.948979C13.473127,14.948979 14.672138,16.148991 14.672138,17.629 14.672138,18.280001 14.441134,18.875978 14.055131,19.339998L14.018128,19.380983 18.46415,31.135977 16.331143,31.942982 12.905131,22.88397 12.905131,31.769978 10.624114,31.769978 10.624114,23.062986 7.2441073,31.999988 5.1100936,31.192984 9.7111144,19.031984 9.6681152,18.962984C9.4421163,18.569979 9.3131175,18.114992 9.3131175,17.629 9.3131175,16.148991 10.51312,14.948979 11.993124,14.948979z M1.729065,12.211983C1.7290648,12.211983,2.185076,14.492987,4.1240812,16.202976L2.4130738,17.058994C2.413074,17.058994,-0.66593621,16.146976,0.13207213,13.295997z M6.8610945,8.107006C6.8610945,8.107006,7.8311005,12.383003,10.339109,14.036993L7.0321002,15.862004C7.0321002,15.862004,2.756078,15.23499,3.2690811,10.159983z M19.003153,1.864001C18.695153,1.8660149 18.410162,1.9460015 18.170157,2.1140005 17.209153,2.7859971 17.319155,4.603012 18.416159,6.1720108 19.513165,7.7419857 21.181174,8.4699821 22.142176,7.7989926 23.10318,7.1269965 22.993178,5.3109884 21.896174,3.741013 21.074162,2.5630051 19.929167,1.858996 19.003153,1.864001z M18.455163,1.9484418E-05C20.915165,0.0099986542 22.769179,2.6330125 22.769179,2.6330122 25.849196,7.8220028 22.82617,9.4759931 22.82617,9.4759931L14.216142,13.92298C10.282116,14.036993 8.5711093,9.3620099 8.5711093,9.3620099 7.3171053,6.0539994 9.2561107,4.6859888 9.2561107,4.6859888L17.524157,0.12401236C17.842152,0.037006686,18.153159,-0.00098766318,18.455163,1.9484418E-05z" />
	</g>
</svg>
